<svg width="17" height="18" viewBox="0 0 17 18" fill="none" xmlns="http://www.w3.org/2000/svg">
<path d="M10.5323 0.834143C9.10294 -0.250244 7.12641 -0.250245 5.69706 0.834141L1.58238 3.95576C0.585527 4.71204 0 5.89121 0 7.14248V14.9329C0 16.3334 1.13533 17.4688 2.53584 17.4688C3.93634 17.4688 5.07167 16.3334 5.07167 14.9329V13.3295C5.07167 11.6489 6.43407 10.2865 8.11467 10.2865C9.79528 10.2865 11.1577 11.6489 11.1577 13.3295V14.9329C11.1577 16.3334 12.293 17.4688 13.6935 17.4688C15.094 17.4688 16.2293 16.3334 16.2293 14.9329V7.14248C16.2293 5.89121 15.6438 4.71204 14.647 3.95577L10.5323 0.834143Z" fill="white"/>
</svg>
