<svg width="20" height="20" viewBox="0 0 20 20" fill="none" xmlns="http://www.w3.org/2000/svg">
<path d="M13.8084 12.0995H12.9357L12.6264 11.8026C13.7089 10.5486 14.3607 8.92067 14.3607 7.14973C14.3607 3.20088 11.1461 0 7.18035 0C3.21459 0 0 3.20088 0 7.14973C0 11.0986 3.21459 14.2995 7.18035 14.2995C8.95886 14.2995 10.5938 13.6505 11.8531 12.5725L12.1514 12.8805V13.7495L17.6747 19.2383L19.3207 17.5993L13.8084 12.0995V12.0995ZM7.18035 12.0995C4.42972 12.0995 2.20934 9.88863 2.20934 7.14973C2.20934 4.41084 4.42972 2.19992 7.18035 2.19992C9.93097 2.19992 12.1514 4.41084 12.1514 7.14973C12.1514 9.88863 9.93097 12.0995 7.18035 12.0995Z" fill="white"/>
</svg>
