<svg width="18" height="19" viewBox="0 0 18 19" fill="none" xmlns="http://www.w3.org/2000/svg">
<path d="M17.6888 11.558L16.0813 10.6337C16.2435 9.76196 16.2435 8.86768 16.0813 7.99595L17.6888 7.07161C17.8737 6.9664 17.9567 6.74846 17.8964 6.54556C17.4775 5.2079 16.7643 3.99799 15.8322 2.99099C15.6888 2.83693 15.4549 2.79936 15.2737 2.90456L13.6662 3.8289C12.9907 3.25025 12.2134 2.80311 11.3719 2.51003V0.665109C11.3719 0.45469 11.2247 0.270574 11.0172 0.225484C9.63226 -0.0826293 8.2134 -0.0675994 6.89642 0.225484C6.68888 0.270574 6.54171 0.45469 6.54171 0.665109V2.51379C5.70398 2.81063 4.92662 3.25777 4.24738 3.83266L2.64361 2.90832C2.45871 2.80311 2.22852 2.83693 2.08513 2.99474C1.15306 3.99799 0.439851 5.2079 0.0209855 6.54932C-0.0431651 6.75222 0.0436269 6.97015 0.228532 7.07536L1.83607 7.9997C1.67381 8.87144 1.67381 9.76572 1.83607 10.6375L0.228532 11.5618C0.0436269 11.667 -0.0393915 11.8849 0.0209855 12.0878C0.439851 13.4255 1.15306 14.6354 2.08513 15.6424C2.22852 15.7965 2.46248 15.834 2.64361 15.7288L4.25115 14.8045C4.92662 15.3831 5.70398 15.8303 6.54548 16.1234V17.972C6.54548 18.1825 6.69265 18.3666 6.9002 18.4117C8.28509 18.7198 9.70395 18.7048 11.0209 18.4117C11.2285 18.3666 11.3756 18.1825 11.3756 17.972V16.1234C12.2134 15.8265 12.9907 15.3794 13.67 14.8045L15.2775 15.7288C15.4624 15.834 15.6926 15.8002 15.836 15.6424C16.7681 14.6392 17.4813 13.4293 17.9001 12.0878C17.9567 11.8812 17.8737 11.6632 17.6888 11.558ZM8.95679 12.3208C7.29265 12.3208 5.93794 10.9719 5.93794 9.31482C5.93794 7.65777 7.29265 6.30884 8.95679 6.30884C10.6209 6.30884 11.9756 7.65777 11.9756 9.31482C11.9756 10.9719 10.6209 12.3208 8.95679 12.3208Z" fill="white"/>
</svg>
